<?xml version="1.0" encoding="UTF-8"?>
<svg version="1.1" xmlns="http://www.w3.org/2000/svg" width="500" height="500">
<path d="M0 0 C165 0 330 0 500 0 C500 165 500 330 500 500 C335 500 170 500 0 500 C0 335 0 170 0 0 Z " fill="#F7F6F1" transform="translate(0,0)"/>
<path d="M0 0 C4.17154729 1.44107997 5.17551606 2.42227204 7.4375 6.1875 C8.04352387 9.43374596 8.04244811 12.63789522 8.046875 15.93359375 C8.07174736 17.40297394 8.07174736 17.40297394 8.09712219 18.90203857 C8.14655956 22.14309105 8.16740081 25.38364322 8.1875 28.625 C8.21537003 30.8812833 8.24460672 33.13755009 8.27514648 35.39379883 C8.58435013 60.65583656 8.53709789 85.92419149 8.4375 111.1875 C9.1289209 111.17082275 9.8203418 111.15414551 10.53271484 111.13696289 C11.43715332 111.1239917 12.3415918 111.11102051 13.2734375 111.09765625 C14.61994385 111.07264038 14.61994385 111.07264038 15.99365234 111.04711914 C18.4375 111.1875 18.4375 111.1875 21.0625 112.625 C23.05943414 116.34655907 23.28292152 120.05178933 22.4375 124.1875 C20.91015625 125.96484375 20.91015625 125.96484375 19.4375 127.1875 C18.7775 126.8575 18.1175 126.5275 17.4375 126.1875 C17.7675 125.65125 18.0975 125.115 18.4375 124.5625 C19.67841523 121.61532633 19.64428166 119.35815216 19.4375 116.1875 C18.9425 115.1975 18.9425 115.1975 18.4375 114.1875 C16.11593403 113.78020772 13.7806213 113.44311323 11.4375 113.1875 C11.4375 117.8075 11.4375 122.4275 11.4375 127.1875 C13.0875 127.1875 14.7375 127.1875 16.4375 127.1875 C16.4375 127.5175 16.4375 127.8475 16.4375 128.1875 C15.220625 128.249375 14.00375 128.31125 12.75 128.375 C8.20768757 128.90280391 6.56136548 130.89477693 3.4375 134.1875 C0.875 134.75 0.875 134.75 -1.5625 134.1875 C-3.875 132.3125 -3.875 132.3125 -5.5625 130.1875 C-5.5625 129.5275 -5.5625 128.8675 -5.5625 128.1875 C-6.366875 127.89875 -7.17125 127.61 -8 127.3125 C-10.5625 126.1875 -10.5625 126.1875 -11.5625 124.1875 C-11.79200319 121.983136 -11.97325933 119.77357827 -12.125 117.5625 C-12.20878906 116.37398438 -12.29257812 115.18546875 -12.37890625 113.9609375 C-12.43949219 113.04570312 -12.50007813 112.13046875 -12.5625 111.1875 C-10.9125 111.1875 -9.2625 111.1875 -7.5625 111.1875 C-7.8925 116.1375 -8.2225 121.0875 -8.5625 126.1875 C-7.9025 126.1875 -7.2425 126.1875 -6.5625 126.1875 C-6.58755615 125.17083755 -6.6126123 124.15417511 -6.63842773 123.10670471 C-6.87809749 113.36027815 -7.11340229 103.61375389 -7.34480286 93.86712742 C-7.46379857 88.86050256 -7.58415135 83.85391926 -7.70800781 78.84741211 C-7.99018122 67.40816953 -8.24509988 55.96887913 -8.45849609 44.52813721 C-8.52410909 41.04161799 -8.60001298 37.55559287 -8.68603516 34.06951904 C-8.78153187 30.16528223 -8.85265065 26.26140297 -8.90353394 22.35633659 C-8.92585998 20.94872411 -8.95679448 19.541217 -8.99710083 18.13400459 C-9.32641117 6.32081662 -9.32641117 6.32081662 -6.26171875 2.32250977 C-3.5625 0.1875 -3.5625 0.1875 0 0 Z " fill="#060606" transform="translate(304.5625,190.8125)"/>
<path d="M0 0 C3.04483529 0.8373297 4.4763449 2.29967827 6.41882706 4.74462891 C8.54314717 8.56203867 8.30683665 12.69207043 8.35888672 16.96875 C8.39048386 17.99077011 8.42208099 19.01279022 8.45463562 20.06578064 C8.552954 23.43951277 8.61672521 26.81293762 8.6796875 30.1875 C8.7402854 32.54440216 8.8028254 34.90125511 8.86721802 37.25805664 C8.99739919 42.2006201 9.1118919 47.143201 9.21386719 52.08642578 C9.34403381 58.39003554 9.50069735 64.6926008 9.66773796 70.99533081 C9.82677269 77.03833457 9.9725101 83.08163828 10.1171875 89.125 C10.15964914 90.83260498 10.15964914 90.83260498 10.2029686 92.57470703 C10.48663253 104.33874275 10.73781 115.96563939 9.5 127.6875 C11.15 127.6875 12.8 127.6875 14.5 127.6875 C14.83 126.3675 15.16 125.0475 15.5 123.6875 C15.83 123.6875 16.16 123.6875 16.5 123.6875 C16.5 125.3375 16.5 126.9875 16.5 128.6875 C13.86 128.6875 11.22 128.6875 8.5 128.6875 C8.396875 129.30625 8.29375 129.925 8.1875 130.5625 C7.5 132.6875 7.5 132.6875 4.5 134.6875 C1.42217096 135.08209347 -0.05168583 134.9490166 -2.75 133.375 C-4.90520309 131.29676845 -5.45536818 129.62119772 -5.59765625 126.64453125 C-5.56510417 124.65885417 -5.53255208 122.67317708 -5.5 120.6875 C-6.82 120.6875 -8.14 120.6875 -9.5 120.6875 C-9.5 122.9975 -9.5 125.3075 -9.5 127.6875 C-9.83 127.6875 -10.16 127.6875 -10.5 127.6875 C-10.5 123.0675 -10.5 118.4475 -10.5 113.6875 C-11.16 113.6875 -11.82 113.6875 -12.5 113.6875 C-12.5 113.0275 -12.5 112.3675 -12.5 111.6875 C-10.52 111.6875 -8.54 111.6875 -6.5 111.6875 C-6.51252808 111.09695831 -6.52505615 110.50641663 -6.53796387 109.89797974 C-6.89097179 93.12630106 -7.1860405 76.35409893 -7.4395752 59.58062744 C-7.49841159 55.78984035 -7.56275749 51.99917885 -7.62792969 48.20849609 C-7.72482676 42.39779404 -7.79396536 36.58736648 -7.84204102 30.77606201 C-7.8639558 28.59777307 -7.89467133 26.41955433 -7.93432617 24.24151611 C-7.98776689 21.20887214 -8.00960694 18.17757841 -8.0234375 15.14453125 C-8.04606659 14.25432785 -8.06869568 13.36412445 -8.0920105 12.44694519 C-8.07683286 8.00716087 -7.94089311 6.25299728 -5.12353516 2.6394043 C-2.5 0.6875 -2.5 0.6875 0 0 Z " fill="#050404" transform="translate(217.5,190.3125)"/>
<path d="M0 0 C5.11873389 2.4128712 9.88821902 5.68427579 12.4140625 10.875 C13.93459023 16.38944724 14.1386867 22.48914195 11.76171875 27.73046875 C9.76970845 30.2966727 8.38840239 31.06360888 5.375 32.1875 C1.97661326 33.27906662 1.97661326 33.27906662 0 36 C-0.36731437 38.92685419 -0.65187146 41.81214093 -0.875 44.75 C-0.96007812 45.54921875 -1.04515625 46.3484375 -1.1328125 47.171875 C-1.44623032 51.50273939 -1.42196179 54.0684808 1.48046875 57.4453125 C2.31191406 58.28835937 3.14335937 59.13140625 4 60 C4.1875 62.125 4.1875 62.125 3 64 C2.030625 64.53625 1.06125 65.0725 0.0625 65.625 C-3.72841234 68.5648912 -4.01252927 70.09210401 -4.7109375 74.6796875 C-5.15840956 79.81956927 -5.38639014 84.97651426 -5.48364258 90.13500977 C-5.67599028 96.23437403 -6.83237789 100.80017689 -10.3125 105.9375 C-12.91684823 107.57727481 -14.99901623 107.31260248 -18 107 C-18.99 106.34 -19.98 105.68 -21 105 C-21.328125 102.79296875 -21.328125 102.79296875 -21.25 100.1875 C-21.23453125 99.33542969 -21.2190625 98.48335938 -21.203125 97.60546875 C-21 95 -21 95 -20.48828125 92.6640625 C-19.84713411 89.16596371 -19.89344923 85.72850395 -19.9375 82.1875 C-19.94201172 81.49462891 -19.94652344 80.80175781 -19.95117188 80.08789062 C-19.96286844 78.39188932 -19.98080076 76.69593297 -20 75 C-20.61488281 74.74605469 -21.22976562 74.49210937 -21.86328125 74.23046875 C-22.67152344 73.88628906 -23.47976562 73.54210937 -24.3125 73.1875 C-25.11300781 72.85105469 -25.91351563 72.51460938 -26.73828125 72.16796875 C-29.03429038 70.98229219 -30.50278509 70.11040873 -32 68 C-31.98828125 66.015625 -31.98828125 66.015625 -31 64 C-28.85546875 62.359375 -28.85546875 62.359375 -26.1875 60.75 C-19.98181085 56.62764935 -17.55348541 52.15127023 -16 45 C-15.7986523 42.94842071 -15.63641731 40.89285481 -15.5 38.8359375 C-15.37625 37.02802734 -15.37625 37.02802734 -15.25 35.18359375 C-15.1675 33.92675781 -15.085 32.66992188 -15 31.375 C-14.67948764 26.58233866 -14.34999058 21.79060451 -14 17 C-13.92837646 16.00911377 -13.85675293 15.01822754 -13.78295898 13.99731445 C-13.70891846 13.11519287 -13.63487793 12.23307129 -13.55859375 11.32421875 C-13.49728271 10.56713623 -13.43597168 9.81005371 -13.37280273 9.0300293 C-12.74715475 5.62317733 -11.22112088 3.62496105 -9 1 C-5.77239609 -0.61380195 -3.59420831 -0.39935648 0 0 Z " fill="#040404" transform="translate(275,189)"/>
<path d="M0 0 C3.54592788 2.67095866 4.86777915 4.10405571 5.5234375 8.546875 C5.50038336 9.94860052 5.44885549 11.35003168 5.375 12.75 C5.35501953 13.52947998 5.33503906 14.30895996 5.31445312 15.11206055 C5.23866863 17.7432676 5.12264703 20.37057877 5 23 C4.87593981 25.90936266 4.75379839 28.81879974 4.63232422 31.72827148 C4.5434545 33.79965736 4.44864164 35.87079607 4.34814453 37.94165039 C4.07916862 43.91844013 3.99491929 49.85342579 4.109375 55.8359375 C4.13064453 57.14328857 4.15191406 58.45063965 4.17382812 59.79760742 C4.2236634 62.34256074 4.29444246 64.88721172 4.38867188 67.4309082 C4.56602108 77.11189056 4.56602108 77.11189056 1.63671875 80.78125 C-1 83 -1 83 -3.4375 83.8125 C-7.47954474 82.53087606 -9.82086469 79.56523087 -12 76 C-13.15511546 71.67466245 -13.16075483 67.37542587 -13.16796875 62.9296875 C-13.17211288 62.14335434 -13.17625702 61.35702118 -13.18052673 60.54685974 C-13.19020748 57.98952579 -13.19018288 55.43234947 -13.1875 52.875 C-13.18756042 52.00628265 -13.18762085 51.13756531 -13.18768311 50.24252319 C-13.17644573 38.90440182 -12.950722 27.62291605 -12.125 16.3125 C-12.04660889 15.21083496 -11.96821777 14.10916992 -11.88745117 12.97412109 C-11.18182859 4.52694603 -11.18182859 4.52694603 -9 1 C-5.86128812 -0.56935594 -3.46144178 -0.35201103 0 0 Z " fill="#040404" transform="translate(345,198)"/>
<path d="M0 0 C3.5796096 0.12419959 5.28928139 1.02714783 8.15234375 3.109375 C7.96081167 6.55695245 7.40638496 7.86239049 4.90234375 10.296875 C0.75731719 12.8181807 -3.99088903 13.02309434 -8.7265625 13.51953125 C-12.07903771 14.15310291 -14.10703546 15.10250198 -16.84765625 17.109375 C-20.32125209 22.77004971 -21.7884095 28.66952579 -22.28515625 35.234375 C-22.62557563 39.22822383 -23.26600187 41.90812357 -25.84765625 45.109375 C-28.7506143 46.56085403 -30.62027404 46.48176525 -33.84765625 46.109375 C-36.77703279 44.29627358 -39.28413574 42.23641601 -40.84765625 39.109375 C-41.32107267 35.35249498 -41.50158446 31.57582084 -41.72265625 27.796875 C-41.80773437 26.75080078 -41.8928125 25.70472656 -41.98046875 24.62695312 C-42.41412114 16.88527234 -42.41412114 16.88527234 -39.62890625 13.0703125 C-38.71109375 12.42320312 -37.79328125 11.77609375 -36.84765625 11.109375 C-36.11804688 10.56152344 -35.3884375 10.01367188 -34.63671875 9.44921875 C-33.92257813 8.98644531 -33.2084375 8.52367187 -32.47265625 8.046875 C-31.76367188 7.58152344 -31.0546875 7.11617187 -30.32421875 6.63671875 C-29.50695312 6.13269531 -28.6896875 5.62867188 -27.84765625 5.109375 C-26.23503906 4.05169922 -26.23503906 4.05169922 -24.58984375 2.97265625 C-20.56627067 0.69566244 -16.90180126 0.44899145 -12.34765625 0.359375 C-11.62707031 0.32972656 -10.90648437 0.30007812 -10.1640625 0.26953125 C-6.77721073 0.14091663 -3.38799331 0.09630844 0 0 Z " fill="#030303" transform="translate(193.84765625,223.890625)"/>
<path d="M0 0 C1.60332791 -0.08121924 3.20784026 -0.13929134 4.8125 -0.1875 C6.15248047 -0.23970703 6.15248047 -0.23970703 7.51953125 -0.29296875 C10 0 10 0 11.84765625 1.31640625 C13 3 13 3 12.625 6.125 C12.41875 7.07375 12.2125 8.0225 12 9 C12.33 9.33 12.66 9.66 13 10 C13.25 12.4375 13.25 12.4375 13 15 C9.68629 17.20914 8.6553979 17.22481553 4.8125 17.125 C3.91144531 17.10695313 3.01039063 17.08890625 2.08203125 17.0703125 C1.39496094 17.04710937 0.70789063 17.02390625 0 17 C0.66 16.67 1.32 16.34 2 16 C2 11.38 2 6.76 2 2 C1.34 2 0.68 2 0 2 C0 1.34 0 0.68 0 0 Z " fill="#474746" transform="translate(274,302)"/>
<path d="M0 0 C1.62463842 -0.05395478 3.24978541 -0.09277195 4.875 -0.125 C5.77992188 -0.14820313 6.68484375 -0.17140625 7.6171875 -0.1953125 C10 0 10 0 12 2 C12.25 4.5 12.25 4.5 12 7 C11.34 7.66 10.68 8.32 10 9 C11.65 11.64 13.3 14.28 15 17 C13.68 17 12.36 17 11 17 C10.5875 15.865625 10.175 14.73125 9.75 13.5625 C9.1725 12.386875 8.595 11.21125 8 10 C6.68 9.67 5.36 9.34 4 9 C4.66 11.64 5.32 14.28 6 17 C4.02 17 2.04 17 0 17 C0.33 16.34 0.66 15.68 1 15 C1.22950319 12.795636 1.41075933 10.58607827 1.5625 8.375 C1.64628906 7.18648438 1.73007813 5.99796875 1.81640625 4.7734375 C1.87699219 3.85820312 1.93757812 2.94296875 2 2 C1.34 2 0.68 2 0 2 C0 1.34 0 0.68 0 0 Z " fill="#3A3A39" transform="translate(132,302)"/>
<path d="M0 0 C2.31 0 4.62 0 7 0 C9.20186088 3.30279131 9.20044366 3.79197351 8.6875 7.5 C8.58824219 8.2734375 8.48898437 9.046875 8.38671875 9.84375 C8 12 8 12 7 15 C4.69 14.67 2.38 14.34 0 14 C0 9.38 0 4.76 0 0 Z " fill="#E6E6E1" transform="translate(316,304)"/>
<path d="M0 0 C0.99 0 1.98 0 3 0 C3.6700834 2.12392506 4.33596797 4.24917524 5 6.375 C5.37125 7.55835938 5.7425 8.74171875 6.125 9.9609375 C7 13 7 13 7 15 C7.66 15 8.32 15 9 15 C9 15.66 9 16.32 9 17 C7.02 17 5.04 17 3 17 C3 16.34 3 15.68 3 15 C3.66 15 4.32 15 5 15 C4.67 13.68 4.34 12.36 4 11 C2.02 11.33 0.04 11.66 -2 12 C-2 12.99 -2 13.98 -2 15 C-2 15.66 -2 16.32 -2 17 C-3.98 17 -5.96 17 -8 17 C-8 16.34 -8 15.68 -8 15 C-7.01 14.34 -6.02 13.68 -5 13 C-3.53921394 9.90592166 -3.53921394 9.90592166 -2.3125 6.375 C-1.87550781 5.18648438 -1.43851562 3.99796875 -0.98828125 2.7734375 C-0.66214844 1.85820312 -0.33601563 0.94296875 0 0 Z " fill="#262625" transform="translate(339,302)"/>
<path d="M0 0 C0.99 0 1.98 0 3 0 C3.6700834 2.12392506 4.33596797 4.24917524 5 6.375 C5.37125 7.55835938 5.7425 8.74171875 6.125 9.9609375 C7 13 7 13 7 15 C7.66 15 8.32 15 9 15 C9 15.66 9 16.32 9 17 C7.02 17 5.04 17 3 17 C3 16.34 3 15.68 3 15 C3.66 15 4.32 15 5 15 C4.67 13.68 4.34 12.36 4 11 C2.02 11.33 0.04 11.66 -2 12 C-2 12.99 -2 13.98 -2 15 C-2 15.66 -2 16.32 -2 17 C-3.98 17 -5.96 17 -8 17 C-8 16.34 -8 15.68 -8 15 C-7.01 14.34 -6.02 13.68 -5 13 C-3.53921394 9.90592166 -3.53921394 9.90592166 -2.3125 6.375 C-1.87550781 5.18648438 -1.43851563 3.99796875 -0.98828125 2.7734375 C-0.66214844 1.85820312 -0.33601562 0.94296875 0 0 Z " fill="#262625" transform="translate(192,302)"/>
<path d="M0 0 C8.88528458 -0.6104394 8.88528458 -0.6104394 12.625 1.4375 C14.62193414 5.15905907 14.84542152 8.86428933 14 13 C12.47265625 14.77734375 12.47265625 14.77734375 11 16 C10.34 15.67 9.68 15.34 9 15 C9.33 14.46375 9.66 13.9275 10 13.375 C11.24091523 10.42782633 11.20678166 8.17065216 11 5 C10.67 4.34 10.34 3.68 10 3 C7.67843403 2.59270772 5.3431213 2.25561323 3 2 C3 6.62 3 11.24 3 16 C4.65 16 6.3 16 8 16 C8 16.33 8 16.66 8 17 C5.66705225 17.04241723 3.33297433 17.04092937 1 17 C0 16 0 16 -0.09765625 12.40234375 C-0.0909822 10.91403133 -0.07902183 9.42573568 -0.0625 7.9375 C-0.05798828 7.17888672 -0.05347656 6.42027344 -0.04882812 5.63867188 C-0.0370068 3.75908129 -0.01907078 1.87953101 0 0 Z " fill="#373736" transform="translate(313,302)"/>
<path d="M0 0 C1.65 0 3.3 0 5 0 C5.8971875 1.60875 5.8971875 1.60875 6.8125 3.25 C8.37401069 5.98958993 10.02605503 8.53256878 12 11 C12.0270043 9.54176788 12.04639787 8.08339325 12.0625 6.625 C12.07410156 5.81289063 12.08570313 5.00078125 12.09765625 4.1640625 C12.14466334 1.95062858 12.14466334 1.95062858 11 0 C12.65 0 14.3 0 16 0 C15.67 0.66 15.34 1.32 15 2 C14.76827173 4.54615009 14.58105471 7.07396225 14.4375 9.625 C14.39431641 10.33140625 14.35113281 11.0378125 14.30664062 11.765625 C14.20055249 13.51018537 14.09977111 15.25506697 14 17 C10.95240004 14.07532844 8.34466882 11.32387029 6.1875 7.6875 C5.76855469 6.99011719 5.34960938 6.29273438 4.91796875 5.57421875 C4.46357422 4.79498047 4.46357422 4.79498047 4 4 C3.97303635 5.79158489 3.95362083 7.58328473 3.9375 9.375 C3.92589844 10.37273437 3.91429687 11.37046875 3.90234375 12.3984375 C3.81993398 14.98432453 3.81993398 14.98432453 5 17 C3.35 17 1.7 17 0 17 C0.33 16.34 0.66 15.68 1 15 C1.23029956 12.62876754 1.41119942 10.25258057 1.5625 7.875 C1.64628906 6.59367187 1.73007812 5.31234375 1.81640625 3.9921875 C1.90728516 2.51105469 1.90728516 2.51105469 2 1 C1.34 0.67 0.68 0.34 0 0 Z " fill="#222121" transform="translate(352,302)"/>
<path d="M0 0 C3.96 0 7.92 0 12 0 C12 1.65 12 3.3 12 5 C11.34 4.67 10.68 4.34 10 4 C10 3.34 10 2.68 10 2 C8.02 2 6.04 2 4 2 C4 3.98 4 5.96 4 8 C5.65 8 7.3 8 9 8 C9.33 7.34 9.66 6.68 10 6 C10 7.65 10 9.3 10 11 C9.67 10.34 9.34 9.68 9 9 C7.35 9 5.7 9 4 9 C4 11.31 4 13.62 4 16 C4.66 16.33 5.32 16.66 6 17 C4.02 17 2.04 17 0 17 C0.66 16.67 1.32 16.34 2 16 C2 11.38 2 6.76 2 2 C1.34 2 0.68 2 0 2 C0 1.34 0 0.68 0 0 Z " fill="#0F0F0E" transform="translate(169,302)"/>
<path d="M0 0 C4.62 0 9.24 0 14 0 C14 1.65 14 3.3 14 5 C13.34 4.67 12.68 4.34 12 4 C12 3.34 12 2.68 12 2 C10.68 2 9.36 2 8 2 C8.14069196 4.12534659 8.28770921 6.25027529 8.4375 8.375 C8.51871094 9.55835938 8.59992188 10.74171875 8.68359375 11.9609375 C8.81084936 14.91518901 8.81084936 14.91518901 10 17 C8.02 17 6.04 17 4 17 C4 16.34 4 15.68 4 15 C4.66 15 5.32 15 6 15 C6 10.71 6 6.42 6 2 C4.35 2 2.7 2 1 2 C0.67 2.99 0.34 3.98 0 5 C0 3.35 0 1.7 0 0 Z " fill="#121111" transform="translate(244,302)"/>
<path d="M0 0 C0.66 0 1.32 0 2 0 C1.29445932 3.66881155 -0.27735506 6.70450534 -2 10 C-0.35 10 1.3 10 3 10 C3 9.34 3 8.68 3 8 C3.66 8 4.32 8 5 8 C5.99 10.97 6.98 13.94 8 17 C6.35 17 4.7 17 3 17 C3.33 15.02 3.66 13.04 4 11 C1.69 11 -0.62 11 -3 11 C-2.67 12.98 -2.34 14.96 -2 17 C-3.98 17 -5.96 17 -8 17 C-8 16.34 -8 15.68 -8 15 C-7.34 14.67 -6.68 14.34 -6 14 C-5.07737791 11.86158619 -4.2343601 9.6883919 -3.4375 7.5 C-1.08919383 1.08919383 -1.08919383 1.08919383 0 0 Z " fill="#1D1D1C" transform="translate(157,302)"/>
<path d="M0 0 C0.66 0 1.32 0 2 0 C2 4.62 2 9.24 2 14 C3.98 13.67 5.96 13.34 8 13 C8 11.35 8 9.7 8 8 C8.99 8.33 9.98 8.66 11 9 C11.1875 11.375 11.1875 11.375 11 14 C7.68629 16.20914 6.6553979 16.22481553 2.8125 16.125 C1.91144531 16.10695313 1.01039063 16.08890625 0.08203125 16.0703125 C-0.60503906 16.04710937 -1.29210937 16.02390625 -2 16 C-1.34 15.67 -0.68 15.34 0 15 C0 10.05 0 5.1 0 0 Z " fill="#262625" transform="translate(276,303)"/>
<path d="M0 0 C1.65 0 3.3 0 5 0 C4.67 4.95 4.34 9.9 4 15 C4.66 15 5.32 15 6 15 C6 11.7 6 8.4 6 5 C6.33 5 6.66 5 7 5 C7 8.63 7 12.26 7 16 C5.35 15.67 3.7 15.34 2 15 C0.58365167 12.16730334 0.6536995 9.52533562 0.4375 6.375 C0.35371094 5.18648438 0.26992188 3.99796875 0.18359375 2.7734375 C0.12300781 1.85820312 0.06242187 0.94296875 0 0 Z " fill="#424241" transform="translate(292,302)"/>
<path d="M0 0 C1.65 0 3.3 0 5 0 C4.98839844 1.05960937 4.97679687 2.11921875 4.96484375 3.2109375 C4.95546524 4.59895658 4.94636511 5.98697755 4.9375 7.375 C4.92912109 8.07367188 4.92074219 8.77234375 4.91210938 9.4921875 C4.8164558 13.37295376 4.8164558 13.37295376 6 17 C3.69 17 1.38 17 -1 17 C-0.67 16.34 -0.34 15.68 0 15 C0.0716735 12.44842345 0.09308442 9.92527029 0.0625 7.375 C0.05573242 6.31539063 0.05573242 6.31539063 0.04882812 5.234375 C0.03703875 3.48954725 0.01910324 1.744763 0 0 Z " fill="#797977" transform="translate(263,302)"/>
<path d="M0 0 C0.33 0 0.66 0 1 0 C1 10.56 1 21.12 1 32 C-0.32 32 -1.64 32 -3 32 C-3 30.02 -3 28.04 -3 26 C-3.99 26 -4.98 26 -6 26 C-6 25.34 -6 24.68 -6 24 C-4.02 24 -2.04 24 0 24 C0 16.08 0 8.16 0 0 Z " fill="#525250" transform="translate(211,278)"/>
<path d="M0 0 C0.33 0 0.66 0 1 0 C1.33 2.31 1.66 4.62 2 7 C3.32 7 4.64 7 6 7 C6 9.64 6 12.28 6 15 C3.69 15 1.38 15 -1 15 C-0.67 10.05 -0.34 5.1 0 0 Z " fill="#72726F" transform="translate(206,304)"/>
<path d="M0 0 C0.99 0 1.98 0 3 0 C3.74926071 3.66305234 4.2380014 6.42355152 3 10 C1.35 10 -0.3 10 -2 10 C-3.39195915 5.82412255 -1.82323219 3.86525224 0 0 Z " fill="#72726F" transform="translate(339,302)"/>
<path d="M0 0 C0.99 0 1.98 0 3 0 C3.74926071 3.66305234 4.2380014 6.42355152 3 10 C1.35 10 -0.3 10 -2 10 C-3.39195915 5.82412255 -1.82323219 3.86525224 0 0 Z " fill="#72726F" transform="translate(192,302)"/>
<path d="M0 0 C1.98 0 3.96 0 6 0 C6.38218767 1.65614657 6.71395102 3.32457024 7 5 C6 6 6 6 2.9375 6.0625 C1.4834375 6.0315625 1.4834375 6.0315625 0 6 C0 4.02 0 2.04 0 0 Z " fill="#EAE9E4" transform="translate(278,311)"/>
<path d="M0 0 C0.66 0 1.32 0 2 0 C2.06058594 0.98742187 2.12117187 1.97484375 2.18359375 2.9921875 C2.26738281 4.27351563 2.35117188 5.55484375 2.4375 6.875 C2.51871094 8.15117187 2.59992188 9.42734375 2.68359375 10.7421875 C2.79206027 13.88300152 2.79206027 13.88300152 4 16 C2.02 16 0.04 16 -2 16 C-1.67 15.34 -1.34 14.68 -1 14 C-0.76970044 11.62876754 -0.58880058 9.25258057 -0.4375 6.875 C-0.35371094 5.59367187 -0.26992187 4.31234375 -0.18359375 2.9921875 C-0.09271484 1.51105469 -0.09271484 1.51105469 0 0 Z " fill="#212120" transform="translate(134,303)"/>
<path d="M0 0 C4.62 0 9.24 0 14 0 C14 1.65 14 3.3 14 5 C13.34 4.67 12.68 4.34 12 4 C12 3.34 12 2.68 12 2 C8.37 2 4.74 2 1 2 C0.67 2.99 0.34 3.98 0 5 C0 3.35 0 1.7 0 0 Z " fill="#414140" transform="translate(244,302)"/>
<path d="M0 0 C1.98 0 3.96 0 6 0 C5.67 1.98 5.34 3.96 5 6 C3.35 6 1.7 6 0 6 C0 4.02 0 2.04 0 0 Z " fill="#F0EFEA" transform="translate(173,304)"/>
<path d="M0 0 C1.98 0 3.96 0 6 0 C5.67 1.65 5.34 3.3 5 5 C3.35 5.33 1.7 5.66 0 6 C0 4.02 0 2.04 0 0 Z " fill="#F2F1EC" transform="translate(136,304)"/>
<path d="M0 0 C0.99 0 1.98 0 3 0 C4.125 4.75 4.125 4.75 3 7 C1.35 7 -0.3 7 -2 7 C-1.34 4.69 -0.68 2.38 0 0 Z " fill="#969592" transform="translate(157,305)"/>
<path d="M0 0 C1.65 0 3.3 0 5 0 C4.67 0.66 4.34 1.32 4 2 C3.76827173 4.54615009 3.58105471 7.07396225 3.4375 9.625 C3.39431641 10.33140625 3.35113281 11.0378125 3.30664062 11.765625 C3.20055249 13.51018537 3.09977111 15.25506697 3 17 C2.01 16.34 1.02 15.68 0 15 C0.33 14.01 0.66 13.02 1 12 C1.09287771 10.31454276 1.12997204 8.625507 1.125 6.9375 C1.12757813 6.05964844 1.13015625 5.18179687 1.1328125 4.27734375 C1.14833424 1.96801734 1.14833424 1.96801734 0 0 Z " fill="#141413" transform="translate(363,302)"/>
<path d="M0 0 C1.98 0 3.96 0 6 0 C5.67 1.65 5.34 3.3 5 5 C3.35 5 1.7 5 0 5 C0 3.35 0 1.7 0 0 Z " fill="#EDECE7" transform="translate(278,304)"/>
<path d="M0 0 C3.96 0 7.92 0 12 0 C12 1.65 12 3.3 12 5 C11.34 4.67 10.68 4.34 10 4 C10 3.34 10 2.68 10 2 C6.7 2 3.4 2 0 2 C0 1.34 0 0.68 0 0 Z " fill="#565654" transform="translate(169,302)"/>
<path d="M0 0 C0.66 0 1.32 0 2 0 C2.08131463 1.43655854 2.13933559 2.8744483 2.1875 4.3125 C2.22230469 5.11300781 2.25710938 5.91351563 2.29296875 6.73828125 C1.93801608 9.47851584 1.10633718 10.29171079 -1 12 C-1.66 11.67 -2.32 11.34 -3 11 C-2.690625 10.484375 -2.38125 9.96875 -2.0625 9.4375 C-0.70940713 6.33334577 -0.38640576 3.34884993 0 0 Z " fill="#171717" transform="translate(325,306)"/>
<path d="M0 0 C0.66 0 1.32 0 2 0 C2.99 2.97 3.98 5.94 5 9 C3.35 9 1.7 9 0 9 C0 6.03 0 3.06 0 0 Z " fill="#2D2D2C" transform="translate(160,310)"/>
<path d="M0 0 C1.32 0 2.64 0 4 0 C4 1.98 4 3.96 4 6 C2.68 6 1.36 6 0 6 C0 4.02 0 2.04 0 0 Z " fill="#B1B0AC" transform="translate(208,304)"/>
<path d="M0 0 C1.65 0 3.3 0 5 0 C4.67 0.66 4.34 1.32 4 2 C3.76970044 4.37123246 3.58880058 6.74741943 3.4375 9.125 C3.35371094 10.40632813 3.26992188 11.68765625 3.18359375 13.0078125 C3.12300781 13.99523437 3.06242187 14.98265625 3 16 C2.67 16 2.34 16 2 16 C1.93941406 15.01257813 1.87882812 14.02515625 1.81640625 13.0078125 C1.73261719 11.72648437 1.64882813 10.44515625 1.5625 9.125 C1.48128906 7.84882813 1.40007812 6.57265625 1.31640625 5.2578125 C1.20793973 2.11699848 1.20793973 2.11699848 0 0 Z " fill="#111110" transform="translate(263,302)"/>
<path d="M0 0 C2.5132982 2.5132982 2 3.62447307 2 7 C0.02 7 -1.96 7 -4 7 C-4 6.34 -4 5.68 -4 5 C-3.01 4.34 -2.02 3.68 -1 3 C-0.67 2.01 -0.34 1.02 0 0 Z " fill="#3F3F3E" transform="translate(335,312)"/>
<path d="M0 0 C2.5132982 2.5132982 2 3.62447307 2 7 C0.02 7 -1.96 7 -4 7 C-4 6.34 -4 5.68 -4 5 C-3.01 4.34 -2.02 3.68 -1 3 C-0.67 2.01 -0.34 1.02 0 0 Z " fill="#3F3F3E" transform="translate(188,312)"/>
<path d="M0 0 C0.33 0 0.66 0 1 0 C1.06058594 0.84304688 1.12117188 1.68609375 1.18359375 2.5546875 C1.26738281 3.65039062 1.35117187 4.74609375 1.4375 5.875 C1.51871094 6.96554687 1.59992188 8.05609375 1.68359375 9.1796875 C1.83001703 11.94728971 1.83001703 11.94728971 3 14 C1.35 14 -0.3 14 -2 14 C-1.67 13.34 -1.34 12.68 -1 12 C-0.77141886 9.9625237 -0.58975722 7.91959697 -0.4375 5.875 C-0.35371094 4.77929688 -0.26992188 3.68359375 -0.18359375 2.5546875 C-0.12300781 1.71164062 -0.06242187 0.86859375 0 0 Z " fill="#191918" transform="translate(354,305)"/>
<path d="M0 0 C3.625 0.375 3.625 0.375 7 1 C7 2.32 7 3.64 7 5 C6.34 4.34 5.68 3.68 5 3 C2.67724823 2.59952556 0.34260643 2.2602896 -2 2 C-1.34 1.34 -0.68 0.68 0 0 Z " fill="#494847" transform="translate(318,302)"/>
<path d="M0 0 C0.99 0 1.98 0 3 0 C3 1.98 3 3.96 3 6 C2.01 6 1.02 6 0 6 C0 4.02 0 2.04 0 0 Z " fill="#DCDBD7" transform="translate(209,311)"/>
<path d="M0 0 C2.1385485 2.1385485 2.42655063 3.13275314 3 6 C1.02 6 -0.96 6 -3 6 C-3 5.34 -3 4.68 -3 4 C-2.34 3.67 -1.68 3.34 -1 3 C-0.67 2.01 -0.34 1.02 0 0 Z " fill="#373735" transform="translate(152,313)"/>
</svg>
